P3 9 11 255 255 255 255 255 255 255 255 255 255 255 255 255 255 255 255 255 255 255 255 255 255 255 255 255 255 255 255 255 255 255 0 153 76 0 153 76 255 255 255 255 255 255 255 255 255 0 153 76 0 153 76 255 255 255 255 255 255 0 153 76 255 255 255 0 153 76 255 255 255 0 153 76 255 255 255 0 153 76 255 255 255 255 255 255 0 153 76 255 255 255 255 255 255 0 153 76 255 255 255 255 255 255 0 153 76 255 255 255 255 255 255 0 153 76 255 255 255 0 153 76 255 255 255 0 153 76 255 255 255 0 153 76 255 255 255 255 255 255 0 153 76 0 153 76 255 255 255 255 255 255 255 255 255 0 153 76 0 153 76 255 255 255 255 255 255 0 153 76 255 255 255 255 255 255 255 255 255 255 255 255 255 255 255 0 153 76 255 255 255 255 255 255 0 153 76 255 255 255 255 255 255 255 255 255 255 255 255 255 255 255 0 153 76 255 255 255 255 255 255 0 153 76 255 255 255 255 255 255 255 255 255 255 255 255 255 255 255 0 153 76 255 255 255 255 255 255 0 153 76 255 255 255 255 255 255 255 255 255 255 255 255 255 255 255 0 153 76 255 255 255 255 255 255 255 255 255 255 255 255 255 255 255 255 255 255 255 255 255 255 255 255 255 255 255 255 255 255 